g Generic_plant_seed
v 0.0002799034 0.1030273 -0.01208496
v 0.007350922 0.1154175 -0.005306244
v -0.002290726 0.1171875 -0.00579071
v -0.01000214 0.1117554 -0.007076263
v 0.01608276 0.1050415 -0.007789612
v -0.01634216 0.1018066 -0.009269714
v 0.01546478 0.08935547 -0.01689148
v 0.02626038 0.09155273 -0.01187897
v 0.0002789497 0.08752441 -0.0171051
v 0.02389526 0.06848145 -0.0231781
v 0.03994751 0.07061768 -0.01647949
v 0.0461731 0.04574585 -0.01878357
v -0.01712036 0.0871582 -0.01660156
v -0.03083801 0.08746338 -0.01133728
v 0.02772522 0.04275513 -0.0274353
v 0.05255127 0.01343536 -0.01925659
v 0.0008392334 0.06390381 -0.02275085
v -0.02481079 0.0637207 -0.02355957
v -0.04290771 0.06506348 -0.01577759
v -0.04736328 0.04135132 -0.01730347
v -0.0001064539 0.03921509 -0.0275116
v 0.03042603 0.01433563 -0.03222656
v -0.02650452 0.03982544 -0.02883911
v -0.02929688 0.01232147 -0.03372192
v -0.05578613 0.01396942 -0.01863098
v -0.05484009 -0.01628113 -0.02095032
v 0.03207397 -0.01774597 -0.03225708
v 0.05529785 -0.0194397 -0.02044678
v -0.0001710653 0.0111618 -0.03198242
v 0.02772522 -0.04522705 -0.02937317
v 0.04821777 -0.0519104 -0.01750183
v 0.03536987 -0.07305908 -0.01410675
v -0.0001651049 -0.01771545 -0.03283691
v -0.03155518 -0.01698303 -0.03335571
v 0.01898193 -0.07208252 -0.02505493
v 0.01928711 -0.09844971 -0.009727478
v -0.0008850098 -0.04367065 -0.03366089
v -0.03262329 -0.04437256 -0.02859497
v -0.05322266 -0.04400635 -0.01612854
v -0.04351807 -0.06890869 -0.01391602
v -0.02510071 -0.06970215 -0.02536011
v -0.02900696 -0.09100342 -0.01015472
v 0.009742737 -0.09521484 -0.01782227
v 0.009613037 -0.1127319 -0.006343842
v -0.001692772 -0.1084595 -0.01209259
v 0.004196167 -0.1212158 -0.004055023
v -0.001070023 -0.1241455 -0.003990173
v -0.005966187 -0.119812 -0.00535965
v -0.01403046 -0.1073608 -0.006858826
v -0.00214386 -0.07061768 -0.02799988
v -0.01352692 -0.09381104 -0.01832581
v -0.001621246 -0.09289551 -0.02107239
v -0.001070023 -0.1241455 -0.003990173
v -0.005966187 -0.119812 -0.00535965
v -0.007419586 -0.1196289 0.0007042885
v -0.01403046 -0.1073608 -0.006858826
v -0.0006575584 -0.1242065 0.001166344
v -0.000541687 -0.1105347 0.005641937
v 0.004196167 -0.1212158 -0.004055023
v -0.01560974 -0.1057739 -0.0002155304
v -0.02900696 -0.09100342 -0.01015472
v 0.004623413 -0.1205444 0.001256943
v 0.009613037 -0.1127319 -0.006343842
v 0.00994873 -0.1117554 0.001069069
v 0.01928711 -0.09844971 -0.009727478
v 0.02204895 -0.09802246 -0.00125885
v 0.03536987 -0.07305908 -0.01410675
v 0.01195526 -0.09509277 0.006919861
v -0.01203918 -0.09222412 0.006721497
v -0.03070068 -0.08959961 -0.00235939
v -0.04522705 -0.0680542 -0.004878998
v -0.04351807 -0.06890869 -0.01391602
v -0.05322266 -0.04400635 -0.01612854
v 0.0007014275 -0.09283447 0.008613586
v -0.02394104 -0.07952881 0.007949829
v -0.0001922846 -0.07470703 0.01430511
v 0.02450562 -0.07324219 0.01200867
v -0.02955627 -0.06079102 0.01319885
v 0.0380249 -0.07287598 -0.002567291
v 0.05047607 -0.05065918 -0.004547119
v 0.04821777 -0.0519104 -0.01750183
v -0.001671791 -0.05813599 0.02032471
v 0.03286743 -0.05014038 0.01383972
v 0.05532837 -0.01939392 -0.007713318
v 0.05529785 -0.0194397 -0.02044678
v 0.01277924 -0.0458374 0.02024841
v 0.03674316 -0.01957703 0.01540375
v 0.05307007 0.01189423 -0.005069733
v 0.05255127 0.01343536 -0.01925659
v -0.01280212 -0.04205322 0.0219574
v 0.0124588 -0.01450348 0.02108765
v -0.03515625 -0.0390625 0.01376343
v 0.04714966 0.04602051 -0.009094238
v 0.0461731 0.04574585 -0.01878357
v 0.03994751 0.07061768 -0.01647949
v 0.03475952 0.01013947 0.01571655
v -0.01301575 -0.0174408 0.02380371
v -0.05548096 -0.04217529 -0.005836487
v -0.03872681 -0.01721191 0.01330566
v -0.05578613 -0.01615906 -0.006874084
v -0.05484009 -0.01628113 -0.02095032
v -0.05578613 0.01396942 -0.01863098
v -0.01390076 0.009094238 0.02560425
v -0.05581665 0.01620483 -0.005859375
v -0.04736328 0.04135132 -0.01730347
v -0.03903198 0.01153564 0.01409149
v -0.04968262 0.0418396 -0.006649017
v -0.04290771 0.06506348 -0.01577759
v -0.03564453 0.03768921 0.01237488
v 0.0127182 0.01065826 0.02372742
v -0.0440979 0.06549072 -0.005878448
v -0.03083801 0.08746338 -0.01133728
v -0.01010132 0.03518677 0.02471924
v 0.01338196 0.03796387 0.01940918
v -0.02856445 0.06204224 0.007980347
v -0.01113129 0.05978394 0.01867676
v -0.03134155 0.08630371 -0.002408981
v -0.01805115 0.1002808 -0.0007863045
v -0.01634216 0.1018066 -0.009269714
v -0.01800537 0.08148193 0.007411957
v -0.0109024 0.1109009 0.0008854866
v -0.01000214 0.1117554 -0.007076263
v -0.00743866 0.09643555 0.005630493
v -0.002996445 0.1160278 0.002197266
v -0.002290726 0.1171875 -0.00579071
v -0.007228851 0.07940674 0.01083374
v 0.006492615 0.09710693 0.005432129
v 0.006866455 0.114624 0.001643181
v 0.007350922 0.1154175 -0.005306244
v 0.01657104 0.1040649 -0.0007061958
v 0.01608276 0.1050415 -0.007789612
v 0.02731323 0.09075928 -0.003158569
v 0.02626038 0.09155273 -0.01187897
v 0.008277893 0.0619812 0.01756287
v 0.0114975 0.08288574 0.009155273
v 0.0255127 0.0657959 0.009346008
v 0.04180908 0.06976318 -0.008308411
v 0.03152466 0.040802 0.01107788
vt 0.2158203 0.1159668
vt 0.2402344 0.06750488
vt 0.206665 0.06414795
vt 0.1795654 0.08215332
vt 0.2729492 0.1034546
vt 0.1556396 0.1175537
vt 0.2697754 0.168457
vt 0.3110352 0.1544189
vt 0.2158203 0.1746826
vt 0.2993164 0.2458496
vt 0.3603516 0.2327881
vt 0.3840332 0.3227539
vt 0.1539307 0.1762695
vt 0.1015625 0.1690674
vt 0.3125 0.3376465
vt 0.4089355 0.4377441
vt 0.2180176 0.2612305
vt 0.1276855 0.2634277
vt 0.05822754 0.2521973
vt 0.03939819 0.3374023
vt 0.2150879 0.3493652
vt 0.3195801 0.4375
vt 0.1231079 0.348877
vt 0.1158447 0.4448242
vt 0.01030731 0.435791
vt 0.01660156 0.5439453
vt 0.324707 0.546875
vt 0.4152832 0.5551758
vt 0.2149658 0.4475098
vt 0.3103027 0.6416016
vt 0.3908691 0.6713867
vt 0.3474121 0.7495117
vt 0.2149658 0.5463867
vt 0.1083374 0.5439453
vt 0.2800293 0.7348633
vt 0.2888184 0.8408203
vt 0.2119141 0.6342773
vt 0.1028442 0.6386719
vt 0.0186615 0.6445313
vt 0.05355835 0.7338867
vt 0.1289063 0.7260742
vt 0.1047363 0.8149414
vt 0.2487793 0.8183594
vt 0.2514648 0.8925781
vt 0.208374 0.8701172
vt 0.230957 0.9243164
vt 0.2114258 0.934082
vt 0.1931152 0.9179688
vt 0.1595459 0.875
vt 0.2075195 0.7275391
vt 0.1673584 0.8129883
vt 0.2089844 0.8071289
vt 0.7080078 0.04354858
vt 0.6738281 0.05310059
vt 0.6865234 0.07519531
vt 0.6245117 0.09985352
vt 0.7114258 0.06118774
vt 0.7114258 0.1153564
vt 0.7397461 0.05258179
vt 0.6416016 0.1258545
vt 0.5537109 0.1705322
vt 0.7299805 0.07275391
vt 0.7807617 0.08093262
vt 0.7578125 0.1052246
vt 0.8383789 0.1348877
vt 0.8120117 0.161377
vt 0.9160156 0.2355957
vt 0.7612305 0.1798096
vt 0.6625977 0.1894531
vt 0.5766602 0.1953125
vt 0.519043 0.2817383
vt 0.4880371 0.262207
vt 0.4484863 0.364502
vt 0.7148438 0.1887207
vt 0.6176758 0.2427979
vt 0.7104492 0.2626953
vt 0.8022461 0.2700195
vt 0.6044922 0.3166504
vt 0.8759766 0.2607422
vt 0.9179688 0.3449707
vt 0.9633789 0.326416
vt 0.7060547 0.3269043
vt 0.8291016 0.3530273
vt 0.9448242 0.4558105
vt 0.9921875 0.453125
vt 0.7568359 0.3693848
vt 0.8413086 0.458252
vt 0.9316406 0.5683594
vt 0.9829102 0.5800781
vt 0.6689453 0.3842773
vt 0.7568359 0.4768066
vt 0.5859375 0.3942871
vt 0.9204102 0.6943359
vt 0.9560547 0.7036133
vt 0.9179688 0.7958984
vt 0.8359375 0.559082
vt 0.6694336 0.4689941
vt 0.4858398 0.3791504
vt 0.5737305 0.4709473
vt 0.4785156 0.4748535
vt 0.4243164 0.4743652
vt 0.4394531 0.5922852
vt 0.6699219 0.5581055
vt 0.4880371 0.59375
vt 0.4699707 0.7001953
vt 0.5776367 0.5703125
vt 0.5102539 0.6879883
vt 0.5092773 0.7871094
vt 0.5908203 0.6591797
vt 0.7578125 0.5615234
vt 0.5429688 0.7705078
vt 0.5756836 0.8637695
vt 0.6845703 0.6435547
vt 0.7641602 0.6538086
vt 0.6137695 0.7456055
vt 0.6821289 0.7280273
vt 0.6000977 0.8398438
vt 0.6547852 0.8881836
vt 0.6376953 0.9174805
vt 0.65625 0.8120117
vt 0.6904297 0.9165039
vt 0.6782227 0.9423828
vt 0.6972656 0.8642578
vt 0.7167969 0.9272461
vt 0.7163086 0.9536133
vt 0.6953125 0.8007813
vt 0.7460938 0.8647461
vt 0.7456055 0.9238281
vt 0.7563477 0.9448242
vt 0.784668 0.8950195
vt 0.8017578 0.9155273
vt 0.8295898 0.8500977
vt 0.8549805 0.871582
vt 0.7470703 0.7353516
vt 0.7617188 0.8120117
vt 0.8110352 0.7524414
vt 0.8920898 0.7783203
vt 0.8320313 0.6655273
vn -0.008110046 0.3718262 -0.9282227
vn 0.4296875 0.8066406 -0.4055176
vn -0.1428223 0.8886719 -0.4362793
vn -0.5444336 0.652832 -0.5263672
vn 0.5927734 0.644043 -0.4833984
vn -0.5537109 0.5927734 -0.5844727
vn 0.1408691 0.3828125 -0.9130859
vn 0.6191406 0.5869141 -0.5219727
vn -0.04406738 0.2993164 -0.953125
vn 0.1676025 0.260498 -0.9506836
vn 0.7241211 0.3991699 -0.5620117
vn 0.7861328 0.2016602 -0.5844727
vn -0.1580811 0.3752441 -0.9130859
vn -0.6601563 0.5776367 -0.4804688
vn 0.2023926 0.1689453 -0.9648438
vn 0.8486328 0.1311035 -0.5126953
vn -0.01329041 0.2141113 -0.9765625
vn -0.1971436 0.2565918 -0.9462891
vn -0.7524414 0.3486328 -0.559082
vn -0.7797852 0.2375488 -0.5791016
vn 0.012146 0.1745605 -0.984375
vn 0.2512207 0.1096802 -0.9619141
vn -0.2045898 0.1925049 -0.9599609
vn -0.2214355 0.1027832 -0.9697266
vn -0.8491211 0.1251221 -0.5126953
vn -0.8251953 -0.04962158 -0.5625
vn 0.2712402 -0.03851318 -0.9619141
vn 0.8461914 -0.0670166 -0.5288086
vn 0.02186584 0.08197021 -0.996582
vn 0.286377 -0.1879883 -0.9394531
vn 0.7807617 -0.3525391 -0.5161133
vn 0.6967773 -0.4824219 -0.5307617
vn 0.01237488 -0.02418518 -0.9995117
vn -0.2607422 -0.04467773 -0.9643555
vn 0.3076172 -0.3276367 -0.8930664
vn 0.6513672 -0.5703125 -0.5
vn 0.0005025864 -0.1246948 -0.9921875
vn -0.3300781 -0.1756592 -0.9277344
vn -0.8261719 -0.2352295 -0.5117188
vn -0.7519531 -0.4384766 -0.4926758
vn -0.3312988 -0.3115234 -0.890625
vn -0.6748047 -0.6054688 -0.421875
vn 0.2932129 -0.4453125 -0.8461914
vn 0.6347656 -0.5932617 -0.4956055
vn -0.03564453 -0.5029297 -0.8637695
vn 0.5878906 -0.6787109 -0.4401855
vn -0.04211426 -0.8979492 -0.4382324
vn -0.5581055 -0.6298828 -0.5395508
vn -0.6542969 -0.6030273 -0.4567871
vn -0.006374359 -0.2573242 -0.9663086
vn -0.3095703 -0.4716797 -0.8256836
vn -0.003370285 -0.4003906 -0.9165039
vn -0.04211426 -0.8979492 -0.4382324
vn -0.5581055 -0.6298828 -0.5395508
vn -0.6723633 -0.5708008 0.4716797
vn -0.6542969 -0.6030273 -0.4567871
vn -0.02151489 -0.8666992 0.4987793
vn -0.01419067 -0.2653809 0.9638672
vn 0.5878906 -0.6787109 -0.4401855
vn -0.6992188 -0.5371094 0.472168
vn -0.6748047 -0.6054688 -0.421875
vn 0.6079102 -0.5854492 0.5366211
vn 0.6347656 -0.5932617 -0.4956055
vn 0.7060547 -0.5009766 0.5004883
vn 0.6513672 -0.5703125 -0.5
vn 0.7587891 -0.5654297 0.3242188
vn 0.6967773 -0.4824219 -0.5307617
vn 0.300293 -0.3303223 0.8945313
vn -0.3034668 -0.3100586 0.9008789
vn -0.7338867 -0.5581055 0.3869629
vn -0.8544922 -0.4177246 0.3095703
vn -0.7519531 -0.4384766 -0.4926758
vn -0.8261719 -0.2352295 -0.5117188
vn -0.01986694 -0.2347412 0.9716797
vn -0.4106445 -0.3522949 0.8408203
vn -0.02886963 -0.2976074 0.9541016
vn 0.4343262 -0.3256836 0.8398438
vn -0.4672852 -0.263916 0.84375
vn 0.8432617 -0.4772949 0.2479248
vn 0.9086914 -0.2946777 0.2956543
vn 0.7807617 -0.3525391 -0.5161133
vn -0.01940918 -0.2333984 0.972168
vn 0.5239258 -0.1699219 0.8344727
vn 0.9536133 -0.0486145 0.2973633
vn 0.8461914 -0.0670166 -0.5288086
vn 0.1705322 -0.1138306 0.9790039
vn 0.5458984 -0.04229736 0.8369141
vn 0.9301758 0.12323 0.3457031
vn 0.8486328 0.1311035 -0.5126953
vn -0.152832 -0.1096802 0.9819336
vn 0.1793213 -0.05712891 0.9819336
vn -0.5478516 -0.1078491 0.8295898
vn 0.9345703 0.2149658 0.2836914
vn 0.7861328 0.2016602 -0.5844727
vn 0.7241211 0.3991699 -0.5620117
vn 0.5546875 0.08062744 0.828125
vn -0.144043 -0.05670166 0.987793
vn -0.9345703 -0.1834717 0.3054199
vn -0.590332 -0.03967285 0.8061523
vn -0.9506836 -0.03353882 0.3083496
vn -0.8251953 -0.04962158 -0.5625
vn -0.8491211 0.1251221 -0.5126953
vn -0.1661377 0.01027679 0.9858398
vn -0.9467773 0.1201782 0.2988281
vn -0.7797852 0.2375488 -0.5791016
vn -0.6049805 0.04751587 0.7949219
vn -0.9306641 0.2434082 0.2727051
vn -0.7524414 0.3486328 -0.559082
vn -0.5913086 0.1878662 0.7841797
vn 0.2142334 0.02575684 0.9765625
vn -0.8876953 0.3447266 0.3059082
vn -0.6601563 0.5776367 -0.4804688
vn -0.1357422 0.1502686 0.9794922
vn 0.2658691 0.1463623 0.9526367
vn -0.5356445 0.2666016 0.8012695
vn -0.1894531 0.2783203 0.9414063
vn -0.7353516 0.5180664 0.4367676
vn -0.6967773 0.5297852 0.4836426
vn -0.5537109 0.5927734 -0.5844727
vn -0.3969727 0.3210449 0.8598633
vn -0.6503906 0.5615234 0.5112305
vn -0.5444336 0.652832 -0.5263672
vn -0.2125244 0.2666016 0.9399414
vn -0.1948242 0.7553711 0.6254883
vn -0.1428223 0.8886719 -0.4362793
vn -0.1448975 0.3256836 0.934082
vn 0.2114258 0.2493896 0.9448242
vn 0.409668 0.6816406 0.605957
vn 0.4296875 0.8066406 -0.4055176
vn 0.6928711 0.5053711 0.5141602
vn 0.5927734 0.644043 -0.4833984
vn 0.7460938 0.5131836 0.4243164
vn 0.6191406 0.5869141 -0.5219727
vn 0.2067871 0.2539063 0.9448242
vn 0.2910156 0.3212891 0.9008789
vn 0.5390625 0.2479248 0.8051758
vn 0.8837891 0.3681641 0.2890625
vn 0.5795898 0.1773682 0.7954102
g Generic_plant_seed_0
f 3/3/3 2/2/2 1/1/1
f 3/3/3 1/1/1 4/4/4
f 1/1/1 2/2/2 5/5/5
f 6/6/6 4/4/4 1/1/1
f 7/7/7 1/1/1 5/5/5
f 8/8/8 7/7/7 5/5/5
f 9/9/9 6/6/6 1/1/1
f 7/7/7 9/9/9 1/1/1
f 10/10/10 7/7/7 8/8/8
f 9/9/9 7/7/7 10/10/10
f 11/11/11 10/10/10 8/8/8
f 10/10/10 11/11/11 12/12/12
f 9/9/9 13/13/13 6/6/6
f 6/6/6 13/13/13 14/14/14
f 15/15/15 10/10/10 12/12/12
f 16/16/16 15/15/15 12/12/12
f 10/10/10 17/17/17 9/9/9
f 13/13/13 9/9/9 17/17/17
f 17/17/17 10/10/10 15/15/15
f 14/14/14 13/13/13 18/18/18
f 18/18/18 13/13/13 17/17/17
f 19/19/19 14/14/14 18/18/18
f 20/20/20 19/19/19 18/18/18
f 21/21/21 17/17/17 15/15/15
f 18/18/18 17/17/17 21/21/21
f 16/16/16 22/22/22 15/15/15
f 21/21/21 15/15/15 22/22/22
f 23/23/23 20/20/20 18/18/18
f 23/23/23 18/18/18 21/21/21
f 23/23/23 24/24/24 20/20/20
f 24/24/24 23/23/23 21/21/21
f 24/24/24 25/25/25 20/20/20
f 26/26/26 25/25/25 24/24/24
f 22/22/22 16/16/16 27/27/27
f 16/16/16 28/28/28 27/27/27
f 29/29/29 21/21/21 22/22/22
f 24/24/24 21/21/21 29/29/29
f 29/29/29 22/22/22 27/27/27
f 30/30/30 27/27/27 28/28/28
f 31/31/31 30/30/30 28/28/28
f 31/31/31 32/32/32 30/30/30
f 33/33/33 29/29/29 27/27/27
f 24/24/24 29/29/29 33/33/33
f 33/33/33 27/27/27 30/30/30
f 34/34/34 26/26/26 24/24/24
f 34/34/34 24/24/24 33/33/33
f 32/32/32 35/35/35 30/30/30
f 35/35/35 32/32/32 36/36/36
f 37/37/37 33/33/33 30/30/30
f 34/34/34 33/33/33 37/37/37
f 37/37/37 30/30/30 35/35/35
f 26/26/26 34/34/34 38/38/38
f 38/38/38 34/34/34 37/37/37
f 39/39/39 26/26/26 38/38/38
f 40/40/40 39/39/39 38/38/38
f 41/41/41 40/40/40 38/38/38
f 41/41/41 38/38/38 37/37/37
f 42/42/42 40/40/40 41/41/41
f 43/43/43 35/35/35 36/36/36
f 43/43/43 36/36/36 44/44/44
f 45/45/45 43/43/43 44/44/44
f 46/46/46 45/45/45 44/44/44
f 46/46/46 47/47/47 45/45/45
f 47/47/47 48/48/48 45/45/45
f 49/49/49 45/45/45 48/48/48
f 50/50/50 37/37/37 35/35/35
f 50/50/50 41/41/41 37/37/37
f 50/50/50 35/35/35 43/43/43
f 51/51/51 42/42/42 41/41/41
f 42/42/42 51/51/51 49/49/49
f 51/51/51 45/45/45 49/49/49
f 51/51/51 41/41/41 50/50/50
f 52/52/52 50/50/50 43/43/43
f 43/43/43 45/45/45 52/52/52
f 52/52/52 51/51/51 50/50/50
f 52/52/52 45/45/45 51/51/51
f 55/55/55 54/54/54 53/53/53
f 56/56/56 54/54/54 55/55/55
f 57/57/57 55/55/55 53/53/53
f 58/58/58 55/55/55 57/57/57
f 57/57/57 53/53/53 59/59/59
f 60/60/60 56/56/56 55/55/55
f 58/58/58 60/60/60 55/55/55
f 61/61/61 56/56/56 60/60/60
f 62/62/62 57/57/57 59/59/59
f 62/62/62 58/58/58 57/57/57
f 62/62/62 59/59/59 63/63/63
f 64/64/64 62/62/62 63/63/63
f 58/58/58 62/62/62 64/64/64
f 64/64/64 63/63/63 65/65/65
f 66/66/66 64/64/64 65/65/65
f 65/65/65 67/67/67 66/66/66
f 58/58/58 64/64/64 68/68/68
f 64/64/64 66/66/66 68/68/68
f 58/58/58 69/69/69 60/60/60
f 70/70/70 61/61/61 60/60/60
f 60/60/60 69/69/69 70/70/70
f 61/61/61 70/70/70 71/71/71
f 71/71/71 72/72/72 61/61/61
f 73/73/73 72/72/72 71/71/71
f 58/58/58 68/68/68 74/74/74
f 58/58/58 74/74/74 69/69/69
f 69/69/69 75/75/75 70/70/70
f 70/70/70 75/75/75 71/71/71
f 74/74/74 76/76/76 69/69/69
f 76/76/76 74/74/74 68/68/68
f 76/76/76 75/75/75 69/69/69
f 66/66/66 77/77/77 68/68/68
f 77/77/77 76/76/76 68/68/68
f 75/75/75 76/76/76 78/78/78
f 75/75/75 78/78/78 71/71/71
f 77/77/77 66/66/66 79/79/79
f 67/67/67 79/79/79 66/66/66
f 80/80/80 79/79/79 67/67/67
f 67/67/67 81/81/81 80/80/80
f 76/76/76 82/82/82 78/78/78
f 76/76/76 77/77/77 82/82/82
f 77/77/77 79/79/79 83/83/83
f 79/79/79 80/80/80 83/83/83
f 84/84/84 80/80/80 81/81/81
f 85/85/85 84/84/84 81/81/81
f 77/77/77 86/86/86 82/82/82
f 77/77/77 83/83/83 86/86/86
f 83/83/83 80/80/80 87/87/87
f 80/80/80 84/84/84 87/87/87
f 83/83/83 87/87/87 86/86/86
f 84/84/84 85/85/85 88/88/88
f 84/84/84 88/88/88 87/87/87
f 85/85/85 89/89/89 88/88/88
f 78/78/78 82/82/82 90/90/90
f 86/86/86 90/90/90 82/82/82
f 87/87/87 91/91/91 86/86/86
f 86/86/86 91/91/91 90/90/90
f 78/78/78 90/90/90 92/92/92
f 78/78/78 92/92/92 71/71/71
f 88/88/88 89/89/89 93/93/93
f 89/89/89 94/94/94 93/93/93
f 94/94/94 95/95/95 93/93/93
f 88/88/88 96/96/96 87/87/87
f 87/87/87 96/96/96 91/91/91
f 91/91/91 97/97/97 90/90/90
f 92/92/92 90/90/90 97/97/97
f 92/92/92 98/98/98 71/71/71
f 98/98/98 73/73/73 71/71/71
f 92/92/92 97/97/97 99/99/99
f 98/98/98 92/92/92 99/99/99
f 98/98/98 100/100/100 73/73/73
f 100/100/100 98/98/98 99/99/99
f 100/100/100 101/101/101 73/73/73
f 102/102/102 101/101/101 100/100/100
f 91/91/91 103/103/103 97/97/97
f 97/97/97 103/103/103 99/99/99
f 104/104/104 102/102/102 100/100/100
f 102/102/102 104/104/104 105/105/105
f 99/99/99 106/106/106 100/100/100
f 103/103/103 106/106/106 99/99/99
f 106/106/106 104/104/104 100/100/100
f 104/104/104 107/107/107 105/105/105
f 108/108/108 105/105/105 107/107/107
f 104/104/104 106/106/106 109/109/109
f 109/109/109 106/106/106 103/103/103
f 107/107/107 104/104/104 109/109/109
f 110/110/110 103/103/103 91/91/91
f 96/96/96 110/110/110 91/91/91
f 111/111/111 108/108/108 107/107/107
f 112/112/112 108/108/108 111/111/111
f 113/113/113 103/103/103 110/110/110
f 113/113/113 109/109/109 103/103/103
f 114/114/114 110/110/110 96/96/96
f 114/114/114 113/113/113 110/110/110
f 115/115/115 111/111/111 107/107/107
f 109/109/109 115/115/115 107/107/107
f 109/109/109 113/113/113 116/116/116
f 113/113/113 114/114/114 116/116/116
f 115/115/115 109/109/109 116/116/116
f 117/117/117 112/112/112 111/111/111
f 115/115/115 117/117/117 111/111/111
f 117/117/117 118/118/118 112/112/112
f 118/118/118 119/119/119 112/112/112
f 120/120/120 117/117/117 115/115/115
f 115/115/115 116/116/116 120/120/120
f 117/117/117 120/120/120 118/118/118
f 118/118/118 121/121/121 119/119/119
f 121/121/121 122/122/122 119/119/119
f 120/120/120 123/123/123 118/118/118
f 118/118/118 123/123/123 121/121/121
f 122/122/122 121/121/121 124/124/124
f 123/123/123 124/124/124 121/121/121
f 125/125/125 122/122/122 124/124/124
f 116/116/116 126/126/126 120/120/120
f 120/120/120 126/126/126 123/123/123
f 123/123/123 127/127/127 124/124/124
f 123/123/123 126/126/126 127/127/127
f 125/125/125 124/124/124 128/128/128
f 127/127/127 128/128/128 124/124/124
f 129/129/129 125/125/125 128/128/128
f 129/129/129 128/128/128 130/130/130
f 127/127/127 130/130/130 128/128/128
f 131/131/131 129/129/129 130/130/130
f 131/131/131 130/130/130 132/132/132
f 132/132/132 130/130/130 127/127/127
f 133/133/133 131/131/131 132/132/132
f 134/134/134 126/126/126 116/116/116
f 114/114/114 134/134/134 116/116/116
f 126/126/126 135/135/135 127/127/127
f 134/134/134 135/135/135 126/126/126
f 135/135/135 132/132/132 127/127/127
f 134/134/134 136/136/136 135/135/135
f 114/114/114 136/136/136 134/134/134
f 135/135/135 136/136/136 132/132/132
f 133/133/133 132/132/132 137/137/137
f 136/136/136 137/137/137 132/132/132
f 95/95/95 133/133/133 137/137/137
f 95/95/95 137/137/137 93/93/93
f 137/137/137 136/136/136 93/93/93
f 114/114/114 138/138/138 136/136/136
f 136/136/136 138/138/138 93/93/93
f 138/138/138 114/114/114 96/96/96
f 88/88/88 93/93/93 138/138/138
f 96/96/96 88/88/88 138/138/138
